<svg xmlns="http://www.w3.org/2000/svg" width="512" height="512" viewBox="0 0 512 512" version="1.1">
	<path d="M 224 23.460 C 177.590 30.202, 137.439 47.894, 103 76.776 C 57.682 114.782, 27.947 170.143, 20.982 229.480 C 19.478 242.298, 19.478 269.702, 20.982 282.520 C 30.104 360.233, 77.681 428.998, 146.782 464.344 C 170.228 476.337, 198.588 485.169, 224.043 488.405 C 238.241 490.211, 266.196 490.513, 279.026 489.001 C 379.751 477.128, 460.489 404.845, 482.389 306.934 C 500.698 225.074, 473.321 138.805, 411.209 82.637 C 377.701 52.337, 339.103 33.465, 293 24.841 C 279.009 22.223, 238.140 21.406, 224 23.460 M 239 43.043 C 148.852 48.997, 71.442 112.215, 47.549 199.393 C 41.794 220.391, 40.516 230.676, 40.516 256 C 40.516 273.132, 40.951 281.095, 42.340 289.378 C 58.057 383.127, 130.036 453.519, 224.500 467.523 C 239.282 469.714, 266.846 469.736, 282.317 467.568 C 415.613 448.891, 498.571 314.498, 455.432 187.117 C 440.327 142.515, 410.727 104.172, 371.141 77.927 C 332.403 52.245, 285.830 39.951, 239 43.043 M 339.812 169.295 C 338.333 169.958, 318.483 187.375, 295.699 208 C 272.916 228.625, 252.413 247.123, 250.137 249.107 L 246 252.714 246 334.221 L 246 415.727 248.537 418.265 C 251.770 421.497, 255.321 422.379, 259.519 420.994 C 266.357 418.737, 266 423.247, 266 339.089 L 266 263.108 308.250 224.977 C 331.488 204.006, 351.285 185.644, 352.245 184.173 C 355.858 178.636, 353.691 172.022, 347.401 169.394 C 343.451 167.744, 343.278 167.741, 339.812 169.295" stroke="none" fill="black" fill-rule="evenodd"/>
</svg>