<svg xmlns="http://www.w3.org/2000/svg" width="30" height="30" viewBox="0 0 30 30">
  <g id="Group_42" data-name="Group 42" transform="translate(-670 -407)">
    <g id="Polygon_1" data-name="Polygon 1" transform="translate(695 410) rotate(90)" fill="none">
      <path d="M11.143,1.429a1,1,0,0,1,1.715,0L23.091,18.486A1,1,0,0,1,22.234,20H1.766a1,1,0,0,1-.857-1.514Z" stroke="none"/>
      <path d="M 11.99984550476074 1.943916320800781 L 12 1.943658828735352 L 1.766189575195312 18.99999809265137 L 22.23381042480469 19.00000762939453 L 11.99984550476074 1.943916320800781 M 12 0.9436531066894531 C 12.33164501190186 0.9436531066894531 12.66329002380371 1.105487823486328 12.85748958587646 1.429159164428711 L 23.09130096435547 18.48550796508789 C 23.49122047424316 19.15202903747559 23.01110076904297 19.99999809265137 22.23381042480469 19.99999809265137 L 1.766189575195312 19.99999809265137 C 0.9888896942138672 19.99999809265137 0.5087795257568359 19.15202903747559 0.9087009429931641 18.48550796508789 L 11.14251041412354 1.429159164428711 C 11.33670997619629 1.105487823486328 11.66835498809814 0.9436531066894531 12 0.9436531066894531 Z" stroke="none" fill="#67abd6"/>
    </g>
    <rect id="Rectangle_28" data-name="Rectangle 28" width="30" height="30" transform="translate(670 407)" fill="none"/>
  </g>
</svg>
