<svg xmlns="http://www.w3.org/2000/svg" width="150" height="50" viewBox="0 0 150 50">
  <g id="Group_189" data-name="Group 189" transform="translate(-595 -347)">
    <g id="Group_186" data-name="Group 186" transform="translate(1 21)">
      <g id="Group_170" data-name="Group 170" transform="translate(-4 -11.872)">
        <g id="Group_167" data-name="Group 167" transform="translate(659 338.872)">
          <path id="Path_14" data-name="Path 14" d="M-1176.563-851.959h-.025a23.94,23.94,0,0,1-3.049-.2.309.309,0,0,1-.266-.346.311.311,0,0,1,.346-.266,23.256,23.256,0,0,0,2.97.191.319.319,0,0,1,.321.309A.3.3,0,0,1-1176.563-851.959Zm3.034-.2a.309.309,0,0,1-.306-.268.31.31,0,0,1,.266-.347,22.731,22.731,0,0,0,2.942-.585.312.312,0,0,1,.378.218.309.309,0,0,1-.218.378,23.613,23.613,0,0,1-3.021.6Zm-9.051-.58a.326.326,0,0,1-.08-.01,23.4,23.4,0,0,1-2.921-.987.307.307,0,0,1-.167-.4.308.308,0,0,1,.4-.168,22.888,22.888,0,0,0,2.844.961.308.308,0,0,1,.219.378A.309.309,0,0,1-1182.58-852.738Zm14.911-.993a.309.309,0,0,1-.285-.191.308.308,0,0,1,.167-.4,22.826,22.826,0,0,0,2.687-1.329.309.309,0,0,1,.421.112.309.309,0,0,1-.112.422,23.564,23.564,0,0,1-2.76,1.365A.308.308,0,0,1-1167.669-853.731Zm-20.522-1.326a.3.3,0,0,1-.154-.041,23.835,23.835,0,0,1-2.563-1.71.309.309,0,0,1-.057-.433.309.309,0,0,1,.432-.057,23.323,23.323,0,0,0,2.5,1.666.308.308,0,0,1,.113.421A.31.31,0,0,1-1188.191-855.057Zm25.769-1.713a.309.309,0,0,1-.245-.12.31.31,0,0,1,.057-.433,23.025,23.025,0,0,0,2.254-1.98.309.309,0,0,1,.436,0,.31.31,0,0,1,0,.437,23.764,23.764,0,0,1-2.314,2.032A.307.307,0,0,1-1162.422-856.769Zm-30.587-1.978a.307.307,0,0,1-.218-.091,23.752,23.752,0,0,1-2.035-2.312.309.309,0,0,1,.056-.433.31.31,0,0,1,.432.056,23.211,23.211,0,0,0,1.982,2.253.308.308,0,0,1,0,.436A.307.307,0,0,1-1193.008-858.747Zm34.876-2.315a.309.309,0,0,1-.188-.064.308.308,0,0,1-.056-.432,22.993,22.993,0,0,0,1.668-2.494.307.307,0,0,1,.421-.112.307.307,0,0,1,.113.421,23.634,23.634,0,0,1-1.714,2.562A.309.309,0,0,1-1158.133-861.062Zm-38.578-2.49a.308.308,0,0,1-.267-.154,23.594,23.594,0,0,1-1.368-2.758.308.308,0,0,1,.166-.4.31.31,0,0,1,.4.166,22.866,22.866,0,0,0,1.333,2.686.308.308,0,0,1-.112.421A.305.305,0,0,1-1196.711-863.553Zm41.616-2.765a.3.3,0,0,1-.118-.023.308.308,0,0,1-.167-.4,22.937,22.937,0,0,0,.964-2.842.313.313,0,0,1,.378-.219.308.308,0,0,1,.218.378,23.366,23.366,0,0,1-.99,2.92A.308.308,0,0,1-1155.095-866.318Zm-43.949-2.834a.309.309,0,0,1-.3-.229,23.5,23.5,0,0,1-.6-3.021.31.31,0,0,1,.265-.347.31.31,0,0,1,.347.266,23,23,0,0,0,.588,2.942.308.308,0,0,1-.218.378A.3.3,0,0,1-1199.044-869.152Zm45.516-3.03-.039,0a.31.31,0,0,1-.267-.346,23.262,23.262,0,0,0,.193-2.994v-.1a.309.309,0,0,1,.309-.309.308.308,0,0,1,.308.309v.1a23.947,23.947,0,0,1-.2,3.074A.309.309,0,0,1-1153.528-872.182Zm-46.315-3.009a.289.289,0,0,1-.308-.284v-.049a23.869,23.869,0,0,1,.193-3.025.31.31,0,0,1,.345-.266.309.309,0,0,1,.267.345,23.251,23.251,0,0,0-.187,2.947A.33.33,0,0,1-1199.843-875.191Zm46.3-3.155a.309.309,0,0,1-.305-.267,22.877,22.877,0,0,0-.594-2.94.308.308,0,0,1,.217-.378.309.309,0,0,1,.378.217,23.68,23.68,0,0,1,.61,3.02.308.308,0,0,1-.265.346A.231.231,0,0,1-1153.541-878.345Zm-45.528-2.839a.29.29,0,0,1-.079-.011.308.308,0,0,1-.22-.377,23.481,23.481,0,0,1,.984-2.922.309.309,0,0,1,.4-.167.308.308,0,0,1,.168.4,22.682,22.682,0,0,0-.958,2.845A.31.31,0,0,1-1199.069-881.184Zm43.938-3.016a.308.308,0,0,1-.284-.189,22.869,22.869,0,0,0-1.338-2.683.308.308,0,0,1,.111-.422.308.308,0,0,1,.422.111,23.46,23.46,0,0,1,1.374,2.755.308.308,0,0,1-.165.4A.312.312,0,0,1-1155.131-884.2Zm-41.627-2.6a.309.309,0,0,1-.154-.041.309.309,0,0,1-.114-.421,23.714,23.714,0,0,1,1.708-2.565.309.309,0,0,1,.432-.058.309.309,0,0,1,.057.432,23.232,23.232,0,0,0-1.663,2.5A.309.309,0,0,1-1196.758-886.8Zm38.571-2.639a.307.307,0,0,1-.244-.12,23.233,23.233,0,0,0-1.987-2.248.308.308,0,0,1,0-.436.309.309,0,0,1,.436,0,23.765,23.765,0,0,1,2.04,2.308.308.308,0,0,1-.055.432A.3.3,0,0,1-1158.186-889.438Zm-34.885-2.181a.307.307,0,0,1-.217-.09.308.308,0,0,1,0-.436,23.857,23.857,0,0,1,2.31-2.038.309.309,0,0,1,.433.056.309.309,0,0,1-.056.432,23.242,23.242,0,0,0-2.25,1.985A.306.306,0,0,1-1193.071-891.619Zm30.579-2.1a.306.306,0,0,1-.187-.063,23.146,23.146,0,0,0-2.5-1.661.308.308,0,0,1-.114-.421.307.307,0,0,1,.421-.114,23.647,23.647,0,0,1,2.566,1.706.309.309,0,0,1,.059.432A.307.307,0,0,1-1162.493-893.714Zm-25.777-1.613a.308.308,0,0,1-.267-.153.309.309,0,0,1,.111-.422,23.474,23.474,0,0,1,2.757-1.371.309.309,0,0,1,.4.165.308.308,0,0,1-.166.4,23.026,23.026,0,0,0-2.684,1.335A.3.3,0,0,1-1188.27-895.328Zm20.513-1.409a.316.316,0,0,1-.117-.023,22.892,22.892,0,0,0-2.845-.955.309.309,0,0,1-.219-.378.309.309,0,0,1,.377-.219,23.56,23.56,0,0,1,2.922.98.308.308,0,0,1,.168.4A.309.309,0,0,1-1167.757-896.736Zm-14.917-.93a.309.309,0,0,1-.3-.228.309.309,0,0,1,.217-.379,23.7,23.7,0,0,1,3.02-.607.311.311,0,0,1,.347.265.308.308,0,0,1-.265.346,23.142,23.142,0,0,0-2.94.591A.3.3,0,0,1-1182.674-897.667Zm9.049-.618-.04,0a23.235,23.235,0,0,0-2.923-.185h-.073a.309.309,0,0,1-.309-.309.309.309,0,0,1,.309-.308h.073a23.878,23.878,0,0,1,3,.189.308.308,0,0,1,.267.345A.308.308,0,0,1-1173.625-898.284Z" transform="translate(1200.151 899.088)" fill="#92c8e0"/>
        </g>
      </g>
      <g id="Group_187" data-name="Group 187" transform="translate(29 -11.872)">
        <g id="Group_167-2" data-name="Group 167" transform="translate(659 338.872)">
          <path id="Path_14-2" data-name="Path 14" d="M-1176.563-851.959h-.025a23.94,23.94,0,0,1-3.049-.2.309.309,0,0,1-.266-.346.311.311,0,0,1,.346-.266,23.256,23.256,0,0,0,2.97.191.319.319,0,0,1,.321.309A.3.3,0,0,1-1176.563-851.959Zm3.034-.2a.309.309,0,0,1-.306-.268.31.31,0,0,1,.266-.347,22.731,22.731,0,0,0,2.942-.585.312.312,0,0,1,.378.218.309.309,0,0,1-.218.378,23.613,23.613,0,0,1-3.021.6Zm-9.051-.58a.326.326,0,0,1-.08-.01,23.4,23.4,0,0,1-2.921-.987.307.307,0,0,1-.167-.4.308.308,0,0,1,.4-.168,22.888,22.888,0,0,0,2.844.961.308.308,0,0,1,.219.378A.309.309,0,0,1-1182.58-852.738Zm14.911-.993a.309.309,0,0,1-.285-.191.308.308,0,0,1,.167-.4,22.826,22.826,0,0,0,2.687-1.329.309.309,0,0,1,.421.112.309.309,0,0,1-.112.422,23.564,23.564,0,0,1-2.76,1.365A.308.308,0,0,1-1167.669-853.731Zm-20.522-1.326a.3.3,0,0,1-.154-.041,23.835,23.835,0,0,1-2.563-1.71.309.309,0,0,1-.057-.433.309.309,0,0,1,.432-.057,23.323,23.323,0,0,0,2.5,1.666.308.308,0,0,1,.113.421A.31.31,0,0,1-1188.191-855.057Zm25.769-1.713a.309.309,0,0,1-.245-.12.31.31,0,0,1,.057-.433,23.025,23.025,0,0,0,2.254-1.98.309.309,0,0,1,.436,0,.31.31,0,0,1,0,.437,23.764,23.764,0,0,1-2.314,2.032A.307.307,0,0,1-1162.422-856.769Zm-30.587-1.978a.307.307,0,0,1-.218-.091,23.752,23.752,0,0,1-2.035-2.312.309.309,0,0,1,.056-.433.31.31,0,0,1,.432.056,23.211,23.211,0,0,0,1.982,2.253.308.308,0,0,1,0,.436A.307.307,0,0,1-1193.008-858.747Zm34.876-2.315a.309.309,0,0,1-.188-.064.308.308,0,0,1-.056-.432,22.993,22.993,0,0,0,1.668-2.494.307.307,0,0,1,.421-.112.307.307,0,0,1,.113.421,23.634,23.634,0,0,1-1.714,2.562A.309.309,0,0,1-1158.133-861.062Zm-38.578-2.49a.308.308,0,0,1-.267-.154,23.594,23.594,0,0,1-1.368-2.758.308.308,0,0,1,.166-.4.31.31,0,0,1,.4.166,22.866,22.866,0,0,0,1.333,2.686.308.308,0,0,1-.112.421A.305.305,0,0,1-1196.711-863.553Zm41.616-2.765a.3.3,0,0,1-.118-.023.308.308,0,0,1-.167-.4,22.937,22.937,0,0,0,.964-2.842.313.313,0,0,1,.378-.219.308.308,0,0,1,.218.378,23.366,23.366,0,0,1-.99,2.92A.308.308,0,0,1-1155.095-866.318Zm-43.949-2.834a.309.309,0,0,1-.3-.229,23.5,23.5,0,0,1-.6-3.021.31.31,0,0,1,.265-.347.31.31,0,0,1,.347.266,23,23,0,0,0,.588,2.942.308.308,0,0,1-.218.378A.3.3,0,0,1-1199.044-869.152Zm45.516-3.03-.039,0a.31.31,0,0,1-.267-.346,23.262,23.262,0,0,0,.193-2.994v-.1a.309.309,0,0,1,.309-.309.308.308,0,0,1,.308.309v.1a23.947,23.947,0,0,1-.2,3.074A.309.309,0,0,1-1153.528-872.182Zm-46.315-3.009a.289.289,0,0,1-.308-.284v-.049a23.869,23.869,0,0,1,.193-3.025.31.31,0,0,1,.345-.266.309.309,0,0,1,.267.345,23.251,23.251,0,0,0-.187,2.947A.33.33,0,0,1-1199.843-875.191Zm46.3-3.155a.309.309,0,0,1-.305-.267,22.877,22.877,0,0,0-.594-2.94.308.308,0,0,1,.217-.378.309.309,0,0,1,.378.217,23.68,23.68,0,0,1,.61,3.02.308.308,0,0,1-.265.346A.231.231,0,0,1-1153.541-878.345Zm-45.528-2.839a.29.29,0,0,1-.079-.011.308.308,0,0,1-.22-.377,23.481,23.481,0,0,1,.984-2.922.309.309,0,0,1,.4-.167.308.308,0,0,1,.168.4,22.682,22.682,0,0,0-.958,2.845A.31.31,0,0,1-1199.069-881.184Zm43.938-3.016a.308.308,0,0,1-.284-.189,22.869,22.869,0,0,0-1.338-2.683.308.308,0,0,1,.111-.422.308.308,0,0,1,.422.111,23.46,23.46,0,0,1,1.374,2.755.308.308,0,0,1-.165.4A.312.312,0,0,1-1155.131-884.2Zm-41.627-2.6a.309.309,0,0,1-.154-.041.309.309,0,0,1-.114-.421,23.714,23.714,0,0,1,1.708-2.565.309.309,0,0,1,.432-.058.309.309,0,0,1,.057.432,23.232,23.232,0,0,0-1.663,2.5A.309.309,0,0,1-1196.758-886.8Zm38.571-2.639a.307.307,0,0,1-.244-.12,23.233,23.233,0,0,0-1.987-2.248.308.308,0,0,1,0-.436.309.309,0,0,1,.436,0,23.765,23.765,0,0,1,2.04,2.308.308.308,0,0,1-.055.432A.3.3,0,0,1-1158.186-889.438Zm-34.885-2.181a.307.307,0,0,1-.217-.09.308.308,0,0,1,0-.436,23.857,23.857,0,0,1,2.31-2.038.309.309,0,0,1,.433.056.309.309,0,0,1-.056.432,23.242,23.242,0,0,0-2.25,1.985A.306.306,0,0,1-1193.071-891.619Zm30.579-2.1a.306.306,0,0,1-.187-.063,23.146,23.146,0,0,0-2.5-1.661.308.308,0,0,1-.114-.421.307.307,0,0,1,.421-.114,23.647,23.647,0,0,1,2.566,1.706.309.309,0,0,1,.059.432A.307.307,0,0,1-1162.493-893.714Zm-25.777-1.613a.308.308,0,0,1-.267-.153.309.309,0,0,1,.111-.422,23.474,23.474,0,0,1,2.757-1.371.309.309,0,0,1,.4.165.308.308,0,0,1-.166.4,23.026,23.026,0,0,0-2.684,1.335A.3.3,0,0,1-1188.27-895.328Zm20.513-1.409a.316.316,0,0,1-.117-.023,22.892,22.892,0,0,0-2.845-.955.309.309,0,0,1-.219-.378.309.309,0,0,1,.377-.219,23.56,23.56,0,0,1,2.922.98.308.308,0,0,1,.168.4A.309.309,0,0,1-1167.757-896.736Zm-14.917-.93a.309.309,0,0,1-.3-.228.309.309,0,0,1,.217-.379,23.7,23.7,0,0,1,3.02-.607.311.311,0,0,1,.347.265.308.308,0,0,1-.265.346,23.142,23.142,0,0,0-2.94.591A.3.3,0,0,1-1182.674-897.667Zm9.049-.618-.04,0a23.235,23.235,0,0,0-2.923-.185h-.073a.309.309,0,0,1-.309-.309.309.309,0,0,1,.309-.308h.073a23.878,23.878,0,0,1,3,.189.308.308,0,0,1,.267.345A.308.308,0,0,1-1173.625-898.284Z" transform="translate(1200.151 899.088)" fill="#92c8e0"/>
        </g>
      </g>
      <g id="Group_188" data-name="Group 188" transform="translate(-56 -11.872)">
        <g id="Group_167-3" data-name="Group 167" transform="translate(659 338.872)">
          <path id="Path_14-3" data-name="Path 14" d="M-1176.563-851.959h-.025a23.94,23.94,0,0,1-3.049-.2.309.309,0,0,1-.266-.346.311.311,0,0,1,.346-.266,23.256,23.256,0,0,0,2.97.191.319.319,0,0,1,.321.309A.3.3,0,0,1-1176.563-851.959Zm3.034-.2a.309.309,0,0,1-.306-.268.31.31,0,0,1,.266-.347,22.731,22.731,0,0,0,2.942-.585.312.312,0,0,1,.378.218.309.309,0,0,1-.218.378,23.613,23.613,0,0,1-3.021.6Zm-9.051-.58a.326.326,0,0,1-.08-.01,23.4,23.4,0,0,1-2.921-.987.307.307,0,0,1-.167-.4.308.308,0,0,1,.4-.168,22.888,22.888,0,0,0,2.844.961.308.308,0,0,1,.219.378A.309.309,0,0,1-1182.58-852.738Zm14.911-.993a.309.309,0,0,1-.285-.191.308.308,0,0,1,.167-.4,22.826,22.826,0,0,0,2.687-1.329.309.309,0,0,1,.421.112.309.309,0,0,1-.112.422,23.564,23.564,0,0,1-2.76,1.365A.308.308,0,0,1-1167.669-853.731Zm-20.522-1.326a.3.3,0,0,1-.154-.041,23.835,23.835,0,0,1-2.563-1.71.309.309,0,0,1-.057-.433.309.309,0,0,1,.432-.057,23.323,23.323,0,0,0,2.5,1.666.308.308,0,0,1,.113.421A.31.31,0,0,1-1188.191-855.057Zm25.769-1.713a.309.309,0,0,1-.245-.12.31.31,0,0,1,.057-.433,23.025,23.025,0,0,0,2.254-1.98.309.309,0,0,1,.436,0,.31.31,0,0,1,0,.437,23.764,23.764,0,0,1-2.314,2.032A.307.307,0,0,1-1162.422-856.769Zm-30.587-1.978a.307.307,0,0,1-.218-.091,23.752,23.752,0,0,1-2.035-2.312.309.309,0,0,1,.056-.433.31.31,0,0,1,.432.056,23.211,23.211,0,0,0,1.982,2.253.308.308,0,0,1,0,.436A.307.307,0,0,1-1193.008-858.747Zm34.876-2.315a.309.309,0,0,1-.188-.064.308.308,0,0,1-.056-.432,22.993,22.993,0,0,0,1.668-2.494.307.307,0,0,1,.421-.112.307.307,0,0,1,.113.421,23.634,23.634,0,0,1-1.714,2.562A.309.309,0,0,1-1158.133-861.062Zm-38.578-2.49a.308.308,0,0,1-.267-.154,23.594,23.594,0,0,1-1.368-2.758.308.308,0,0,1,.166-.4.31.31,0,0,1,.4.166,22.866,22.866,0,0,0,1.333,2.686.308.308,0,0,1-.112.421A.305.305,0,0,1-1196.711-863.553Zm41.616-2.765a.3.3,0,0,1-.118-.023.308.308,0,0,1-.167-.4,22.937,22.937,0,0,0,.964-2.842.313.313,0,0,1,.378-.219.308.308,0,0,1,.218.378,23.366,23.366,0,0,1-.99,2.92A.308.308,0,0,1-1155.095-866.318Zm-43.949-2.834a.309.309,0,0,1-.3-.229,23.5,23.5,0,0,1-.6-3.021.31.31,0,0,1,.265-.347.31.31,0,0,1,.347.266,23,23,0,0,0,.588,2.942.308.308,0,0,1-.218.378A.3.3,0,0,1-1199.044-869.152Zm45.516-3.03-.039,0a.31.31,0,0,1-.267-.346,23.262,23.262,0,0,0,.193-2.994v-.1a.309.309,0,0,1,.309-.309.308.308,0,0,1,.308.309v.1a23.947,23.947,0,0,1-.2,3.074A.309.309,0,0,1-1153.528-872.182Zm-46.315-3.009a.289.289,0,0,1-.308-.284v-.049a23.869,23.869,0,0,1,.193-3.025.31.31,0,0,1,.345-.266.309.309,0,0,1,.267.345,23.251,23.251,0,0,0-.187,2.947A.33.33,0,0,1-1199.843-875.191Zm46.3-3.155a.309.309,0,0,1-.305-.267,22.877,22.877,0,0,0-.594-2.94.308.308,0,0,1,.217-.378.309.309,0,0,1,.378.217,23.68,23.68,0,0,1,.61,3.02.308.308,0,0,1-.265.346A.231.231,0,0,1-1153.541-878.345Zm-45.528-2.839a.29.29,0,0,1-.079-.011.308.308,0,0,1-.22-.377,23.481,23.481,0,0,1,.984-2.922.309.309,0,0,1,.4-.167.308.308,0,0,1,.168.4,22.682,22.682,0,0,0-.958,2.845A.31.31,0,0,1-1199.069-881.184Zm43.938-3.016a.308.308,0,0,1-.284-.189,22.869,22.869,0,0,0-1.338-2.683.308.308,0,0,1,.111-.422.308.308,0,0,1,.422.111,23.46,23.46,0,0,1,1.374,2.755.308.308,0,0,1-.165.4A.312.312,0,0,1-1155.131-884.2Zm-41.627-2.6a.309.309,0,0,1-.154-.041.309.309,0,0,1-.114-.421,23.714,23.714,0,0,1,1.708-2.565.309.309,0,0,1,.432-.058.309.309,0,0,1,.057.432,23.232,23.232,0,0,0-1.663,2.5A.309.309,0,0,1-1196.758-886.8Zm38.571-2.639a.307.307,0,0,1-.244-.12,23.233,23.233,0,0,0-1.987-2.248.308.308,0,0,1,0-.436.309.309,0,0,1,.436,0,23.765,23.765,0,0,1,2.04,2.308.308.308,0,0,1-.055.432A.3.3,0,0,1-1158.186-889.438Zm-34.885-2.181a.307.307,0,0,1-.217-.09.308.308,0,0,1,0-.436,23.857,23.857,0,0,1,2.31-2.038.309.309,0,0,1,.433.056.309.309,0,0,1-.056.432,23.242,23.242,0,0,0-2.25,1.985A.306.306,0,0,1-1193.071-891.619Zm30.579-2.1a.306.306,0,0,1-.187-.063,23.146,23.146,0,0,0-2.5-1.661.308.308,0,0,1-.114-.421.307.307,0,0,1,.421-.114,23.647,23.647,0,0,1,2.566,1.706.309.309,0,0,1,.059.432A.307.307,0,0,1-1162.493-893.714Zm-25.777-1.613a.308.308,0,0,1-.267-.153.309.309,0,0,1,.111-.422,23.474,23.474,0,0,1,2.757-1.371.309.309,0,0,1,.4.165.308.308,0,0,1-.166.4,23.026,23.026,0,0,0-2.684,1.335A.3.3,0,0,1-1188.27-895.328Zm20.513-1.409a.316.316,0,0,1-.117-.023,22.892,22.892,0,0,0-2.845-.955.309.309,0,0,1-.219-.378.309.309,0,0,1,.377-.219,23.56,23.56,0,0,1,2.922.98.308.308,0,0,1,.168.4A.309.309,0,0,1-1167.757-896.736Zm-14.917-.93a.309.309,0,0,1-.3-.228.309.309,0,0,1,.217-.379,23.7,23.7,0,0,1,3.02-.607.311.311,0,0,1,.347.265.308.308,0,0,1-.265.346,23.142,23.142,0,0,0-2.94.591A.3.3,0,0,1-1182.674-897.667Zm9.049-.618-.04,0a23.235,23.235,0,0,0-2.923-.185h-.073a.309.309,0,0,1-.309-.309.309.309,0,0,1,.309-.308h.073a23.878,23.878,0,0,1,3,.189.308.308,0,0,1,.267.345A.308.308,0,0,1-1173.625-898.284Z" transform="translate(1200.151 899.088)" fill="#92c8e0"/>
        </g>
      </g>
    </g>
    <rect id="Rectangle_70" data-name="Rectangle 70" width="150" height="50" transform="translate(595 347)" fill="none"/>
  </g>
</svg>
